PathFileType	4	(X/Y/Z)	./resultDataOpenSim/trcMotMarkerGrf/sub09/qtm-03-04.trc
DataRate	CameraRate	NumFrames	NumMarkers	Units	OrigDataRate	OrigDataStartFrame	OrigNumFrames
250.000000	250.000000	12	24	m	250.000000	352	469
Frame#	Time	L.Toe.Tip			R.Toe.Tip			L.Ankle.Lat			R.Ankle.Lat			L.Ankle.Med			R.Ankle.Med			L.Heel			R.Heel			L.Knee.Lat			R.Knee.Lat			L.Knee.Med			R.Knee.Med			L.Thigh.Upper			R.Thigh.Upper			L.ASIS			R.ASIS			V.Sacral			L.Acromium			R.Acromium			C7			L.Elbow			R.Elbow			L.Wrist.Lat			R.Wrist.Lat
		X1	Y1	Z1	X2	Y2	Z2	X3	Y3	Z3	X4	Y4	Z4	X5	Y5	Z5	X6	Y6	Z6	X7	Y7	Z7	X8	Y8	Z8	X9	Y9	Z9	X10	Y10	Z10	X11	Y11	Z11	X12	Y12	Z12	X13	Y13	Z13	X14	Y14	Z14	X15	Y15	Z15	X16	Y16	Z16	X17	Y17	Z17	X18	Y18	Z18	X19	Y19	Z19	X20	Y20	Z20	X21	Y21	Z21	X22	Y22	Z22	X23	Y23	Z23	X24	Y24	Z24

352	1.404	0.67579895	0.12239025	-0.0060930583	1.0171723	0.039547715	0.12145644	0.62678172	0.2686415	-0.04520732	0.86844555	0.054549101	0.15224257	0.65276887	0.25758188	0.049389579	0.88087208	0.095228854	0.062169269	0.55565301	0.30342011	0.00029440352	0.80009786	0.036251887	0.10142505	0.97035552	0.48650612	-0.066662332	0.95933312	0.50273453	0.22188532	0.97374118	0.47366621	0.061222945	0.94199863	0.49337702	0.09585058	0.85955362	0.88563421	-0.0842098	0.86446918	0.90071664	0.28563391	0.93472982	0.97616294	-0.028979247	0.94762315	0.98737681	0.20947235	0.77451538	1.0343355	0.093505198	0.92082605	1.4299285	-0.075411938	0.91568708	1.4457323	0.25498436	0.84883199	1.4853243	0.089342751	0.81949332	1.0684223	-0.10841372	0.78566984	1.1044983	0.35141292	0.99604131	0.87004374	-0.1298681	0.95613625	0.8861276	0.35041668
353	1.408	0.69300844	0.12197034	-0.0069533985	1.0172985	0.039517887	0.12147103	0.64020123	0.26677761	-0.044736918	0.868499	0.054763684	0.15209577	0.6665946	0.25570844	0.049606266	0.88119607	0.095422382	0.062034106	0.56823516	0.29979077	0.0012780775	0.80025929	0.036608247	0.10115297	0.98079138	0.4892795	-0.066054426	0.9604896	0.50279365	0.2219009	0.9833724	0.47648063	0.061781116	0.94353933	0.49350536	0.096099102	0.86596564	0.8873035	-0.084079384	0.8691789	0.90159124	0.28579707	0.94030214	0.97774325	-0.028511652	0.95294408	0.98840271	0.20993793	0.78022631	1.0354921	0.093632955	0.92569455	1.4310371	-0.075521325	0.92128704	1.4471914	0.25489495	0.85410183	1.4865287	0.089414151	0.82295929	1.0700503	-0.10782619	0.79203099	1.1056927	0.35234695	0.99739076	0.87005446	-0.13033949	0.96470587	0.88906515	0.35008221
354	1.412	0.71031901	0.1213462	-0.0078187454	1.0174274	0.039493706	0.12147604	0.65372513	0.2646666	-0.044251065	0.86850531	0.05499622	0.15196517	0.68048665	0.25360486	0.049901893	0.88155338	0.095625177	0.061890495	0.58090868	0.29579697	0.0022240331	0.80042063	0.036991977	0.10084664	0.99107328	0.49202937	-0.065482712	0.96145991	0.50279967	0.22169661	0.9933563	0.47928485	0.062257722	0.94510697	0.49360753	0.096220664	0.87200266	0.88887911	-0.084158859	0.87397734	0.90244736	0.28592019	0.94587109	0.97925472	-0.028058757	0.95826033	0.98938811	0.21039834	0.78553462	1.036649	0.093927049	0.93058524	1.4320839	-0.075618859	0.92686842	1.4485975	0.254804	0.85936257	1.4876857	0.089466657	0.82641596	1.0716247	-0.10729582	0.79834033	1.1068266	0.35324998	0.99875535	0.87005645	-0.13082333	0.97321734	0.89196158	0.34974882
355	1.416	0.72777463	0.12056296	-0.0087140529	1.0175465	0.039472962	0.12147374	0.66734929	0.26231039	-0.043761617	0.86844903	0.055248895	0.15185509	0.69438067	0.25128799	0.050329035	0.8819229	0.095836413	0.061744261	0.5937018	0.2914582	0.0031384958	0.8005166	0.037398938	0.10054251	1.0011953	0.49475598	-0.064979648	0.96232224	0.50276902	0.22137759	1.0037789	0.4821241	0.062670764	0.94647687	0.4936889	0.096073997	0.87786318	0.89038188	-0.084316742	0.8789514	0.90331596	0.28596006	0.95145809	0.98070318	-0.027613247	0.96357239	0.99032729	0.21085627	0.79065067	1.0377657	0.094304519	0.93549434	1.4330693	-0.075710936	0.93243507	1.4499508	0.25471297	0.86461897	1.4888041	0.089508295	0.82986789	1.073147	-0.10681473	0.80460796	1.1079044	0.35412512	1.0001327	0.8700485	-0.13131909	0.98167583	0.89481826	0.34941339
356	1.42	0.74536321	0.11964495	-0.0096266599	1.0176421	0.03944685	0.1214718	0.68106576	0.25970951	-0.043272841	0.86836438	0.055513778	0.15175384	0.70826551	0.24875393	0.050852008	0.88228052	0.09605791	0.061602586	0.60662939	0.28679735	0.0040223346	0.80048871	0.037809033	0.10028531	1.0111749	0.49745111	-0.064554943	0.96324082	0.5027464	0.22113392	1.0145583	0.48497517	0.063004256	0.94761385	0.49377022	0.095674771	0.88383687	0.8918409	-0.084372552	0.88419871	0.90423736	0.2858637	0.95708811	0.98209409	-0.027181391	0.96887998	0.99121468	0.21130882	0.7957137	1.0388072	0.09467645	0.94041626	1.433993	-0.075802952	0.93798952	1.451249	0.25462606	0.86987838	1.4898827	0.089548649	0.83333388	1.0746239	-0.10637404	0.81084103	1.1089182	0.35496386	1.0015255	0.87002705	-0.13182657	0.99010142	0.89764309	0.34907513
357	1.424	0.76297308	0.11856966	-0.010475939	1.0177081	0.039408307	0.12147853	0.6948793	0.2568742	-0.042787978	0.86831465	0.055782178	0.15163972	0.72221311	0.24599608	0.051392506	0.88261053	0.096294682	0.061471477	0.6197029	0.28183441	0.0048834589	0.80040509	0.038213648	0.10006919	1.0210557	0.5000982	-0.064176307	0.96430649	0.50276117	0.22106741	1.025489	0.48776079	0.063224415	0.94859508	0.49389206	0.095181035	0.8900267	0.89325612	-0.08425747	0.88971743	0.90521403	0.28560657	0.96277879	0.98342364	-0.026780846	0.9741814	0.99204884	0.21175172	0.80079963	1.039742	0.094977688	0.94534716	1.4348533	-0.075895582	0.94352784	1.4524867	0.25454538	0.87514179	1.4909148	0.089594183	0.83682488	1.0760543	-0.10597046	0.81701557	1.1098508	0.35574146	1.0029425	0.86998893	-0.13234206	0.99850702	0.90043721	0.34873484
358	1.428	0.7804901	0.11730151	-0.011176035	1.0177548	0.039363565	0.12149313	0.70880489	0.25381463	-0.042313204	0.86832325	0.056055394	0.15150246	0.73639165	0.24301701	0.05186564	0.88290276	0.096558112	0.06136029	0.63293757	0.276601	0.0057322474	0.80044688	0.038634271	0.099830634	1.0308782	0.50267882	-0.063791796	0.9654921	0.50281678	0.22114526	1.036143	0.49043387	0.063305677	0.94951814	0.49409202	0.094792338	0.89633072	0.89460285	-0.084026107	0.89536567	0.90617266	0.28525245	0.96856497	0.9846852	-0.026432252	0.97947443	0.99283302	0.21218173	0.80593652	1.04055	0.095189061	0.95028905	1.4356498	-0.075985151	0.94904632	1.4536603	0.25447068	0.88040563	1.4918925	0.089645838	0.84033407	1.0774272	-0.10560451	0.82310703	1.1106943	0.35644338	1.0043893	0.86993134	-0.13286143	1.0068893	0.90319211	0.34839303
359	1.432	0.79790456	0.1158341	-0.011705878	1.0178057	0.039329422	0.12150593	0.72285	0.25052479	-0.041846617	0.86836632	0.056340386	0.15135018	0.75096358	0.23983074	0.052229923	0.88314897	0.096859546	0.061284979	0.64635034	0.27114946	0.0065503536	0.80069588	0.039099227	0.099534368	1.0406585	0.50517226	-0.063371345	0.96673864	0.50290708	0.22129908	1.0460908	0.49302318	0.0632682	0.95047668	0.49437456	0.094632661	0.90258666	0.89585806	-0.083776801	0.90089268	0.90694906	0.28500345	0.97448201	0.98587969	-0.026149814	0.98475609	0.99357174	0.2125964	0.81112913	1.0412477	0.095331262	0.95524709	1.4363831	-0.076066635	0.95454612	1.4547693	0.25440162	0.8856674	1.4928099	0.089699727	0.84384867	1.0787337	-0.10527765	0.82913419	1.1114587	0.35708561	1.0058612	0.86985047	-0.13338681	1.0152396	0.90589894	0.34804945
360	1.436	0.81529366	0.11420358	-0.012094524	1.0178794	0.039315295	0.12150978	0.7370013	0.24699442	-0.041368819	0.86842266	0.056639103	0.15119497	0.76598038	0.23647275	0.052498572	0.88335889	0.097189632	0.06125027	0.65996497	0.26552828	0.0073047327	0.80105052	0.03960769	0.09922839	1.0503884	0.50755608	-0.062916893	0.96800892	0.50302001	0.22148775	1.055363	0.49557199	0.063196956	0.95152707	0.49471962	0.094694814	0.90865349	0.89700801	-0.083590824	0.90606599	0.9073738	0.28511798	0.98045292	0.9870124	-0.025902665	0.99002149	0.99426839	0.21299519	0.81638108	1.041887	0.095441332	0.96022321	1.4370538	-0.076139833	0.96002615	1.455815	0.25433596	0.89092824	1.4936608	0.089749969	0.84737005	1.0799747	-0.10498995	0.83513593	1.112155	0.35769218	1.0073507	0.86974277	-0.13392277	1.0235524	0.90855413	0.34770402
361	1.44	0.83275492	0.11246474	-0.012376391	1.017976	0.039312893	0.12150648	0.75124965	0.24322896	-0.040864467	0.868495	0.056945146	0.15103935	0.78134479	0.23299683	0.052707278	0.88357725	0.097516829	0.061226338	0.67381043	0.25976023	0.0079911581	0.80140324	0.040120745	0.09898901	1.0600327	0.50981285	-0.062439997	0.96928459	0.50314084	0.22169376	1.0644376	0.49808308	0.063198512	0.95267117	0.49509782	0.094877677	0.9144073	0.89804349	-0.083513638	0.9108552	0.90747177	0.28565091	0.98626616	0.98808085	-0.02560479	0.99526499	0.99492541	0.21337935	0.8216936	1.0425065	0.095548362	0.96521341	1.437663	-0.076208362	0.96548102	1.4567976	0.25426959	0.89618967	1.4944394	0.089792577	0.85091684	1.0811574	-0.10473655	0.84113346	1.1127816	0.35827399	1.0088564	0.86960572	-0.13446759	1.0318247	0.91115663	0.34735638
362	1.444	0.85036387	0.11066385	-0.01255953	1.0180794	0.039301401	0.12150375	0.76562162	0.23925006	-0.040342875	0.86859455	0.057248682	0.1508768	0.79680912	0.22943798	0.052920791	0.88385944	0.097827828	0.06117508	0.68790561	0.25384802	0.00863077	0.80175975	0.040585712	0.098839502	1.0695356	0.51193536	-0.061951125	0.9705564	0.50326396	0.22191596	1.0737631	0.50053699	0.063339735	0.95390785	0.49546697	0.09508768	0.91980533	0.8989666	-0.083538165	0.9153551	0.90750301	0.28636259	0.99176723	0.98907327	-0.025193195	1.0004842	0.99554452	0.21374951	0.82705569	1.0431026	0.095662477	0.97021068	1.4382119	-0.076275256	0.97090856	1.4577156	0.25420061	0.90145212	1.4951505	0.089827777	0.85450583	1.0822852	-0.10451173	0.8471244	1.1133301	0.35883289	1.0103823	0.86943737	-0.13501467	1.0400549	0.91370424	0.34700464
363	1.448	0.86816278	0.10884109	-0.012622077	1.0181717	0.039261092	0.12150898	0.78015404	0.23508369	-0.039819927	0.86872249	0.057545955	0.1507025	0.81214854	0.22579292	0.053208453	0.88423356	0.098156347	0.061105977	0.70222877	0.24778788	0.0092450597	0.80214539	0.040984414	0.098721875	1.0788532	0.51393068	-0.061464811	0.97181505	0.50339349	0.22216576	1.0834862	0.50291769	0.063630862	0.95526933	0.49577306	0.095306637	0.92504943	0.89979518	-0.083573931	0.91941237	0.90770721	0.28701829	0.9970234	0.98998132	-0.024700519	1.0056863	0.99612696	0.21410647	0.83244296	1.0436494	0.095780248	0.97521088	1.4387004	-0.076343097	0.97631393	1.4585662	0.25413123	0.90671599	1.495811	0.089857661	0.85813749	1.0833557	-0.10431584	0.8531025	1.1137987	0.35937166	1.0119318	0.86923683	-0.13556116	1.0482466	0.91619522	0.34664628
